999
dxflib 2.0.4.8
  0
SECTION
  2
HEADER
  9
$ACADVER
  1
AC1015
  9
$HANDSEED
  5
FFFF
  9
$DIMTAD
 70
0
  9
$CLAYER
  8
0
  9
$MENU
  1
.
  9
$CHAMFERA
 40
0.5
  9
$UCSYDIR
 10
0.0
 20
1.0
 30
0.0
  9
$SHADEDIF
 70
70
  9
$TILEMODE
 70
1
  9
$VISRETAIN
 70
1
  9
$EXTMIN
 10
100000000000000000000.0
 20
100000000000000000000.0
 30
100000000000000000000.0
  9
$ORTHOMODE
 70
0
  9
$REGENMODE
 70
1
  9
$TRACEWID
 40
0.05
  9
$DIMASZ
 40
2.5
  9
$CHAMFERB
 40
0.5
  9
$UCSXDIR
 10
1.0
 20
0.0
 30
0.0
  9
$DIMSHO
 70
1
  9
$DIMALT
 70
0
  9
$DIMSAH
 70
0
  9
$DIMTFAC
 40
1.0
  9
$DIMGAP
 40
0.625
  9
$SKETCHINC
 40
0.1
  9
$USRTIMER
 70
1
  9
$ANGBASE
 50
0.0
  9
$PUCSYDIR
 10
0.0
 20
1.0
 30
0.0
  9
$LIMMIN
 10
0.0
 20
0.0
  9
$DIMTSZ
 40
0.0
  9
$SPLFRAME
 70
0
  9
$SURFTYPE
 70
6
  9
$PUCSXDIR
 10
1.0
 20
0.0
 30
0.0
  9
$DWGCODEPAGE
  3
ASCII
  9
$LUNITS
 70
2
  9
$AUPREC
 70
0
  9
$SPLINESEGS
 70
8
  9
$SURFTAB1
 70
6
  9
$INSBASE
 10
0.0
 20
0.0
 30
0.0
  9
$DIMRND
 40
0.0
  9
$DIMCEN
 40
0.09
  9
$ELEVATION
 40
0.0
  9
$SKPOLY
 70
0
  9
$SURFTAB2
 70
6
  9
$USERI1
 70
0
  9
$UNITMODE
 70
0
  9
$EXTMAX
 10
-100000000000000000000.0
 20
-100000000000000000000.0
 30
-100000000000000000000.0
  9
$FILLMODE
 70
1
  9
$TEXTSIZE
 40
0.2
  9
$DIMEXO
 40
0.625
  9
$PELEVATION
 40
0.0
  9
$UCSORG
 10
0.0
 20
0.0
 30
0.0
  9
$INSUNITS
 70
4
  9
$DIMSCALE
 40
1.0
  9
$DIMDLE
 40
0.0
  9
$DIMZIN
 70
8
  9
$TDUSRTIMER
 40
0.0000000116
  9
$ANGDIR
 70
0
  9
$SURFU
 70
6
  9
$LIMMAX
 10
12.0
 20
9.0
  9
$QTEXTMODE
 70
0
  9
$SURFV
 70
6
  9
$WORLDVIEW
 70
1
  9
$ATTMODE
 70
1
  9
$DIMTXT
 40
2.5
  9
$DIMLIM
 70
0
  9
$DIMSE1
 70
0
  9
$THICKNESS
 40
0.0
  9
$LIMCHECK
 70
0
  9
$PDMODE
 70
0
  9
$GRIDMODE
 70
1
  9
$CELTYPE
  6
ByLayer
  9
$DIMTOH
 70
1
  9
$DIMSE2
 70
0
  9
$DIMLFAC
 40
1.0
  9
$DIMSOXD
 70
0
  9
$LUPREC
 70
4
  9
$TDINDWG
 40
0.0000000116
  9
$SPLINETYPE
 70
6
  9
$PUCSORG
 10
0.0
 20
0.0
 30
0.0
  9
$PEXTMIN
 10
100000000000000000000.0
 20
100000000000000000000.0
 30
100000000000000000000.0
  9
$PEXTMAX
 10
-100000000000000000000.0
 20
-100000000000000000000.0
 30
-100000000000000000000.0
  9
$CECOLOR
 62
178
  9
$DIMDLI
 40
0.38
  9
$DIMTM
 40
0.0
  9
$DIMASO
 70
1
  9
$DIMTVP
 40
0.0
  9
$DIMSTYLE
  2
Standard
  9
$PLINEWID
 40
0.0
  9
$PLIMCHECK
 70
0
  9
$LTSCALE
 40
1.0
  9
$DIMTIH
 70
1
  9
$DIMALTD
 70
2
  9
$DIMCLRT
 70
178
  9
$FILLETRAD
 40
0.5
  9
$TDUPDATE
 40
2456250.930057859
  9
$MAXACTVP
 70
64
  9
$PLIMMIN
 10
0.0
 20
0.0
  9
$PLIMMAX
 10
12.0
 20
9.0
  9
$DIMEXE
 40
1.25
  9
$DIMCLRD
 70
178
  9
$PDSIZE
 40
0.0
  9
$USERR1
 40
0.0
  9
$TEXTSTYLE
  7
Standard
  9
$DIMTP
 40
0.0
  9
$DIMTOL
 70
0
  9
$DIMALTF
 40
25.399999999999999
  9
$DIMTOFL
 70
0
  9
$DIMCLRE
 70
178
  9
$TDCREATE
 40
2456250.930057859
  9
$SHADEDGE
 70
3
  9
$PLINEGEN
 70
0
  9
$PSLTSCALE
 70
1
  9
$MIRRTEXT
 70
1
  9
$DIMTIX
 70
0
  9
$AUNITS
 70
0
  0
ENDSEC
  0
SECTION
  2
TABLES
  0
TABLE
  2
VPORT
  5
8
100
AcDbSymbolTable
 70
1
  0
VPORT
  5
30
100
AcDbSymbolTableRecord
100
AcDbViewportTableRecord
  2
*Active
 70
0
 10
0.0
 20
0.0
 11
1.0
 21
1.0
 12
286.30555555555549
 22
148.5
 13
0.0
 23
0.0
 14
10.0
 24
10.0
 15
10.0
 25
10.0
 16
0.0
 26
0.0
 36
1.0
 17
0.0
 27
0.0
 37
0.0
 40
297.0
 41
1.92798353909465
 42
50.0
 43
0.0
 44
0.0
 50
0.0
 51
0.0
 71
0
 72
100
 73
1
 74
3
 75
1
 76
1
 77
0
 78
0
281
0
 65
1
110
0.0
120
0.0
130
0.0
111
1.0
121
0.0
131
0.0
112
0.0
122
1.0
132
0.0
 79
0
146
0.0
  0
ENDTAB
  0
TABLE
  2
LTYPE
  5
5
100
AcDbSymbolTable
 70
21
  0
LTYPE
  5
14
100
AcDbSymbolTableRecord
100
AcDbLinetypeTableRecord
  2
ByBlock
 70
0
  3

 72
65
 73
0
 40
0.0
  0
LTYPE
  5
15
100
AcDbSymbolTableRecord
100
AcDbLinetypeTableRecord
  2
ByLayer
 70
0
  3

 72
65
 73
0
 40
0.0
  0
LTYPE
  5
16
100
AcDbSymbolTableRecord
100
AcDbLinetypeTableRecord
  2
CONTINUOUS
 70
0
  3
Solid line
 72
65
 73
0
 40
0.0
  0
LTYPE
  5
31
100
AcDbSymbolTableRecord
100
AcDbLinetypeTableRecord
  2
DOT
 70
0
  3
Dot . . . . . . . . . . . . . . . . . . . . . .
 72
65
 73
2
 40
6.3499999999999996
 49
0.0
 74
0
 49
-6.3499999999999996
 74
0
  0
LTYPE
  5
32
100
AcDbSymbolTableRecord
100
AcDbLinetypeTableRecord
  2
DOT2
 70
0
  3
Dot (.5x) .....................................
 72
65
 73
2
 40
3.1749999999999998
 49
0.0
 74
0
 49
-3.1749999999999998
 74
0
  0
LTYPE
  5
33
100
AcDbSymbolTableRecord
100
AcDbLinetypeTableRecord
  2
DOTX2
 70
0
  3
Dot (2x) .  .  .  .  .  .  .  .  .  .  .  .  .
 72
65
 73
2
 40
12.699999999999999
 49
0.0
 74
0
 49
-12.699999999999999
 74
0
  0
LTYPE
  5
34
100
AcDbSymbolTableRecord
100
AcDbLinetypeTableRecord
  2
DASHED
 70
0
  3
Dashed __ __ __ __ __ __ __ __ __ __ __ __ __ _
 72
65
 73
2
 40
19.050000000000001
 49
12.699999999999999
 74
0
 49
-6.3499999999999996
 74
0
  0
LTYPE
  5
35
100
AcDbSymbolTableRecord
100
AcDbLinetypeTableRecord
  2
DASHED2
 70
0
  3
Dashed (.5x) _ _ _ _ _ _ _ _ _ _ _ _ _ _ _ _ _
 72
65
 73
2
 40
9.5250000000000004
 49
6.3499999999999996
 74
0
 49
-3.1749999999999998
 74
0
  0
LTYPE
  5
36
100
AcDbSymbolTableRecord
100
AcDbLinetypeTableRecord
  2
DASHEDX2
 70
0
  3
Dashed (2x) ____  ____  ____  ____  ____  ___
 72
65
 73
2
 40
38.100000000000001
 49
25.399999999999999
 74
0
 49
-12.699999999999999
 74
0
  0
LTYPE
  5
37
100
AcDbSymbolTableRecord
100
AcDbLinetypeTableRecord
  2
DASHDOT
 70
0
  3
Dash dot __ . __ . __ . __ . __ . __ . __ . __
 72
65
 73
4
 40
25.399999999999999
 49
12.699999999999999
 74
0
 49
-6.3499999999999996
 74
0
 49
0.0
 74
0
 49
-6.3499999999999996
 74
0
  0
LTYPE
  5
38
100
AcDbSymbolTableRecord
100
AcDbLinetypeTableRecord
  2
DASHDOT2
 70
0
  3
Dash dot (.5x) _._._._._._._._._._._._._._._.
 72
65
 73
4
 40
12.699999999999999
 49
6.3499999999999996
 74
0
 49
-3.1749999999999998
 74
0
 49
0.0
 74
0
 49
-3.1749999999999998
 74
0
  0
LTYPE
  5
39
100
AcDbSymbolTableRecord
100
AcDbLinetypeTableRecord
  2
DASHDOTX2
 70
0
  3
Dash dot (2x) ____  .  ____  .  ____  .  ___
 72
65
 73
4
 40
50.799999999999997
 49
25.399999999999999
 74
0
 49
-12.699999999999999
 74
0
 49
0.0
 74
0
 49
-12.699999999999999
 74
0
  0
LTYPE
  5
3A
100
AcDbSymbolTableRecord
100
AcDbLinetypeTableRecord
  2
DIVIDE
 70
0
  3
Divide ____ . . ____ . . ____ . . ____ . . ____
 72
65
 73
6
 40
31.75
 49
12.699999999999999
 74
0
 49
-6.3499999999999996
 74
0
 49
0.0
 74
0
 49
-6.3499999999999996
 74
0
 49
0.0
 74
0
 49
-6.3499999999999996
 74
0
  0
LTYPE
  5
3B
100
AcDbSymbolTableRecord
100
AcDbLinetypeTableRecord
  2
DIVIDE2
 70
0
  3
Divide (.5x) __..__..__..__..__..__..__..__.._
 72
65
 73
6
 40
15.875
 49
6.3499999999999996
 74
0
 49
-3.1749999999999998
 74
0
 49
0.0
 74
0
 49
-3.1749999999999998
 74
0
 49
0.0
 74
0
 49
-3.1749999999999998
 74
0
  0
LTYPE
  5
3C
100
AcDbSymbolTableRecord
100
AcDbLinetypeTableRecord
  2
DIVIDEX2
 70
0
  3
Divide (2x) ________  .  .  ________  .  .  _
 72
65
 73
6
 40
63.5
 49
25.399999999999999
 74
0
 49
-12.699999999999999
 74
0
 49
0.0
 74
0
 49
-12.699999999999999
 74
0
 49
0.0
 74
0
 49
-12.699999999999999
 74
0
  0
LTYPE
  5
3D
100
AcDbSymbolTableRecord
100
AcDbLinetypeTableRecord
  2
CENTER
 70
0
  3
Center ____ _ ____ _ ____ _ ____ _ ____ _ ____
 72
65
 73
4
 40
50.799999999999997
 49
31.75
 74
0
 49
-6.3499999999999996
 74
0
 49
6.3499999999999996
 74
0
 49
-6.3499999999999996
 74
0
  0
LTYPE
  5
3E
100
AcDbSymbolTableRecord
100
AcDbLinetypeTableRecord
  2
CENTER2
 70
0
  3
Center (.5x) ___ _ ___ _ ___ _ ___ _ ___ _ ___
 72
65
 73
4
 40
28.574999999999999
 49
19.050000000000001
 74
0
 49
-3.1749999999999998
 74
0
 49
3.1749999999999998
 74
0
 49
-3.1749999999999998
 74
0
  0
LTYPE
  5
3F
100
AcDbSymbolTableRecord
100
AcDbLinetypeTableRecord
  2
CENTERX2
 70
0
  3
Center (2x) ________  __  ________  __  _____
 72
65
 73
4
 40
101.59999999999999
 49
63.5
 74
0
 49
-12.699999999999999
 74
0
 49
12.699999999999999
 74
0
 49
-12.699999999999999
 74
0
  0
LTYPE
  5
40
100
AcDbSymbolTableRecord
100
AcDbLinetypeTableRecord
  2
BORDER
 70
0
  3
Border __ __ . __ __ . __ __ . __ __ . __ __ .
 72
65
 73
6
 40
44.450000000000003
 49
12.699999999999999
 74
0
 49
-6.3499999999999996
 74
0
 49
12.699999999999999
 74
0
 49
-6.3499999999999996
 74
0
 49
0.0
 74
0
 49
-6.3499999999999996
 74
0
  0
LTYPE
  5
41
100
AcDbSymbolTableRecord
100
AcDbLinetypeTableRecord
  2
BORDER2
 70
0
  3
Border (.5x) __.__.__.__.__.__.__.__.__.__.__.
 72
65
 73
6
 40
22.225000000000001
 49
6.3499999999999996
 74
0
 49
-3.1749999999999998
 74
0
 49
6.3499999999999996
 74
0
 49
-3.1749999999999998
 74
0
 49
0.0
 74
0
 49
-3.1749999999999998
 74
0
  0
LTYPE
  5
42
100
AcDbSymbolTableRecord
100
AcDbLinetypeTableRecord
  2
BORDERX2
 70
0
  3
Border (2x) ____  ____  .  ____  ____  .  ___
 72
65
 73
6
 40
88.900000000000006
 49
25.399999999999999
 74
0
 49
-12.699999999999999
 74
0
 49
25.399999999999999
 74
0
 49
-12.699999999999999
 74
0
 49
0.0
 74
0
 49
-12.699999999999999
 74
0
  0
ENDTAB
  0
TABLE
  2
LAYER
  5
2
100
AcDbSymbolTable
 70
4
  0
LAYER
  5
10
100
AcDbSymbolTableRecord
100
AcDbLayerTableRecord
  2
0
 70
0
 62
4
  6
CONTINUOUS
390
F
  0
LAYER
  5
43
100
AcDbSymbolTableRecord
100
AcDbLayerTableRecord
  2
Inside
 70
4
 62
2
  6
CONTINUOUS
390
F
  0
LAYER
  5
44
100
AcDbSymbolTableRecord
100
AcDbLayerTableRecord
  2
Outside
 70
4
 62
4
  6
CONTINUOUS
390
F
  0
LAYER
  5
45
100
AcDbSymbolTableRecord
100
AcDbLayerTableRecord
  2
cutout
 70
0
 62
7
  6
CONTINUOUS
390
F
  0
ENDTAB
  0
TABLE
  2
STYLE
  5
3
100
AcDbSymbolTable
 70
1
  0
STYLE
  5
11
100
AcDbSymbolTableRecord
100
AcDbTextStyleTableRecord
  2
Standard
 70
0
 40
0.0
 41
0.75
 50
0.0
 71
0
 42
2.5
  3
txt
  4

  0
ENDTAB
  0
TABLE
  2
VIEW
  5
6
100
AcDbSymbolTable
 70
0
  0
ENDTAB
  0
TABLE
  2
UCS
  5
7
100
AcDbSymbolTable
 70
0
  0
ENDTAB
  0
TABLE
  2
APPID
  5
9
100
AcDbSymbolTable
 70
1
  0
APPID
  5
12
100
AcDbSymbolTableRecord
100
AcDbRegAppTableRecord
  2
ACAD
 70
0
  0
ENDTAB
  0
TABLE
  2
DIMSTYLE
  5
A
100
AcDbSymbolTable
 70
1
100
AcDbDimStyleTable
 71
0
  0
DIMSTYLE
105
27
100
AcDbSymbolTableRecord
100
AcDbDimStyleTableRecord
  2
Standard
 41
2.5
 42
0.625
 43
3.75
 44
1.25
 70
0
 73
0
 74
0
 77
1
 78
8
140
2.5
141
2.5
143
0.03937007874016
147
0.625
171
3
172
1
271
2
272
2
274
3
278
44
283
0
284
8
340
11
  0
ENDTAB
  0
TABLE
  2
BLOCK_RECORD
  5
1
100
AcDbSymbolTable
 70
1
  0
BLOCK_RECORD
  5
1F
100
AcDbSymbolTableRecord
100
AcDbBlockTableRecord
  2
*Model_Space
340
22
  0
BLOCK_RECORD
  5
1B
100
AcDbSymbolTableRecord
100
AcDbBlockTableRecord
  2
*Paper_Space
340
1E
  0
BLOCK_RECORD
  5
23
100
AcDbSymbolTableRecord
100
AcDbBlockTableRecord
  2
*Paper_Space0
340
26
  0
BLOCK_RECORD
  5
46
100
AcDbSymbolTableRecord
100
AcDbBlockTableRecord
  2
GOPR3348
340
0
  0
ENDTAB
  0
ENDSEC
  0
SECTION
  2
BLOCKS
  0
BLOCK
  5
20
100
AcDbEntity
  8
0
100
AcDbBlockBegin
  2
*Model_Space
 70
0
 10
0.0
 20
0.0
 30
0.0
  3
*Model_Space
  1

  0
ENDBLK
  5
21
100
AcDbEntity
  8
0
100
AcDbBlockEnd
  0
BLOCK
  5
1C
100
AcDbEntity
 67
1
  8
0
100
AcDbBlockBegin
  2
*Paper_Space
 70
0
 10
0.0
 20
0.0
 30
0.0
  3
*Paper_Space
  1

  0
ENDBLK
  5
1D
100
AcDbEntity
 67
1
  8
0
100
AcDbBlockEnd
  0
BLOCK
  5
24
100
AcDbEntity
  8
0
100
AcDbBlockBegin
  2
*Paper_Space0
 70
0
 10
0.0
 20
0.0
 30
0.0
  3
*Paper_Space0
  1

  0
ENDBLK
  5
25
100
AcDbEntity
  8
0
100
AcDbBlockEnd
  0
BLOCK
  5
47
100
AcDbEntity
  8
0
100
AcDbBlockBegin
  2
GOPR3348
 70
0
 10
0.0
 20
0.0
 30
0.0
  3
GOPR3348
  1

  0
ENDBLK
  5
48
100
AcDbEntity
  8
0
100
AcDbBlockEnd
  0
ENDSEC
  0
SECTION
  2
ENTITIES
  0
LINE
  5
49
100
AcDbEntity
100
AcDbLine
  8
Outside
 62
256
370
-1
  6
ByLayer
 10
5.0
 20
0.0
 30
0.0
 11
0.0
 21
4.8082515851822976
 31
0.0
  0
LINE
  5
4A
100
AcDbEntity
100
AcDbLine
  8
Outside
 62
256
370
-1
  6
ByLayer
 10
0.0
 20
4.8082515851822976
 30
0.0
 11
0.0
 21
365.0
 31
0.0
  0
LINE
  5
4B
100
AcDbEntity
100
AcDbLine
  8
Outside
 62
256
370
-1
  6
ByLayer
 10
0.0
 20
365.0
 30
0.0
 11
5.0
 21
370.0
 31
0.0
  0
LINE
  5
4C
100
AcDbEntity
100
AcDbLine
  8
Outside
 62
256
370
-1
  6
ByLayer
 10
5.0
 20
370.0
 30
0.0
 11
365.0
 21
370.0
 31
0.0
  0
LINE
  5
4D
100
AcDbEntity
100
AcDbLine
  8
Outside
 62
256
370
-1
  6
ByLayer
 10
365.0
 20
370.0
 30
0.0
 11
370.0
 21
365.0
 31
0.0
  0
LINE
  5
4E
100
AcDbEntity
100
AcDbLine
  8
Outside
 62
256
370
-1
  6
ByLayer
 10
370.0
 20
365.0
 30
0.0
 11
370.0
 21
5.0
 31
0.0
  0
LINE
  5
4F
100
AcDbEntity
100
AcDbLine
  8
Outside
 62
256
370
-1
  6
ByLayer
 10
370.0
 20
5.0
 30
0.0
 11
365.0
 21
0.0
 31
0.0
  0
LINE
  5
50
100
AcDbEntity
100
AcDbLine
  8
Outside
 62
256
370
-1
  6
ByLayer
 10
365.0
 20
0.0
 30
0.0
 11
345.0
 21
0.0
 31
0.0
  0
LINE
  5
51
100
AcDbEntity
100
AcDbLine
  8
Outside
 62
256
370
-1
  6
ByLayer
 10
345.0
 20
0.0
 30
0.0
 11
343.0
 21
2.0
 31
0.0
  0
LINE
  5
52
100
AcDbEntity
100
AcDbLine
  8
Outside
 62
256
370
-1
  6
ByLayer
 10
329.0
 20
2.0
 30
0.0
 11
41.0
 21
2.0
 31
0.0
  0
LINE
  5
53
100
AcDbEntity
100
AcDbLine
  8
Outside
 62
256
370
-1
  6
ByLayer
 10
27.0
 20
2.0
 30
0.0
 11
25.0
 21
0.0
 31
0.0
  0
LINE
  5
54
100
AcDbEntity
100
AcDbLine
  8
Outside
 62
256
370
-1
  6
ByLayer
 10
25.0
 20
0.0
 30
0.0
 11
5.0
 21
0.0
 31
0.0
  0
ARC
  5
55
100
AcDbEntity
  8
Inside
 62
256
370
-1
  6
ByLayer
100
AcDbCircle
 10
100.0
 20
19.999999999999979
 30
0.0
 40
5.0
100
AcDbArc
 50
180.0
 51
0.0
  0
LINE
  5
56
100
AcDbEntity
100
AcDbLine
  8
Inside
 62
256
370
-1
  6
ByLayer
 10
95.0
 20
20.0
 30
0.0
 11
95.0
 21
35.0
 31
0.0
  0
LINE
  5
57
100
AcDbEntity
100
AcDbLine
  8
Inside
 62
256
370
-1
  6
ByLayer
 10
95.0
 20
35.0
 30
0.0
 11
80.0
 21
50.0
 31
0.0
  0
LINE
  5
58
100
AcDbEntity
100
AcDbLine
  8
Inside
 62
256
370
-1
  6
ByLayer
 10
80.0
 20
50.0
 30
0.0
 11
60.0
 21
50.0
 31
0.0
  0
LINE
  5
59
100
AcDbEntity
100
AcDbLine
  8
Inside
 62
256
370
-1
  6
ByLayer
 10
60.0
 20
50.0
 30
0.0
 11
55.0
 21
55.0
 31
0.0
  0
LINE
  5
5A
100
AcDbEntity
100
AcDbLine
  8
Inside
 62
256
370
-1
  6
ByLayer
 10
55.0
 20
55.0
 30
0.0
 11
55.0
 21
325.0
 31
0.0
  0
LINE
  5
5B
100
AcDbEntity
100
AcDbLine
  8
Inside
 62
256
370
-1
  6
ByLayer
 10
55.0
 20
325.0
 30
0.0
 11
60.0
 21
330.0
 31
0.0
  0
LINE
  5
5C
100
AcDbEntity
100
AcDbLine
  8
Inside
 62
256
370
-1
  6
ByLayer
 10
60.0
 20
330.0
 30
0.0
 11
310.0
 21
330.0
 31
0.0
  0
LINE
  5
5D
100
AcDbEntity
100
AcDbLine
  8
Inside
 62
256
370
-1
  6
ByLayer
 10
310.0
 20
330.0
 30
0.0
 11
315.0
 21
325.0
 31
0.0
  0
LINE
  5
5E
100
AcDbEntity
100
AcDbLine
  8
Inside
 62
256
370
-1
  6
ByLayer
 10
315.0
 20
55.0
 30
0.0
 11
310.0
 21
50.0
 31
0.0
  0
LINE
  5
5F
100
AcDbEntity
100
AcDbLine
  8
Inside
 62
256
370
-1
  6
ByLayer
 10
105.0
 20
19.999999999999979
 30
0.0
 11
105.0
 21
35.0
 31
0.0
  0
LINE
  5
60
100
AcDbEntity
100
AcDbLine
  8
Inside
 62
256
370
-1
  6
ByLayer
 10
105.0
 20
35.0
 30
0.0
 11
110.0
 21
40.0
 31
0.0
  0
ARC
  5
61
100
AcDbEntity
  8
Inside
 62
256
370
-1
  6
ByLayer
100
AcDbCircle
 10
270.00000000000011
 20
19.999999999999979
 30
0.0
 40
5.0
100
AcDbArc
 50
180.0
 51
0.0
  0
LINE
  5
62
100
AcDbEntity
100
AcDbLine
  8
Inside
 62
256
370
-1
  6
ByLayer
 10
275.0
 20
35.0
 30
0.0
 11
275.00000000000011
 21
19.999999999999979
 31
0.0
  0
LINE
  5
63
100
AcDbEntity
100
AcDbLine
  8
Inside
 62
256
370
-1
  6
ByLayer
 10
265.00000000000011
 20
19.999999999999979
 30
0.0
 11
265.0
 21
35.0
 31
0.0
  0
LINE
  5
64
100
AcDbEntity
100
AcDbLine
  8
Inside
 62
256
370
-1
  6
ByLayer
 10
265.0
 20
35.000000000000007
 30
0.0
 11
260.0
 21
40.0
 31
0.0
  0
LINE
  5
65
100
AcDbEntity
100
AcDbLine
  8
Inside
 62
256
370
-1
  6
ByLayer
 10
180.0
 20
15.0
 30
0.0
 11
190.0
 21
15.0
 31
0.0
  0
LINE
  5
66
100
AcDbEntity
100
AcDbLine
  8
Inside
 62
256
370
-1
  6
ByLayer
 10
190.0
 20
15.0
 30
0.0
 11
215.0
 21
40.0
 31
0.0
  0
LINE
  5
67
100
AcDbEntity
100
AcDbLine
  8
Inside
 62
256
370
-1
  6
ByLayer
 10
180.0
 20
15.0
 30
0.0
 11
155.0
 21
40.0
 31
0.0
  0
LINE
  5
68
100
AcDbEntity
100
AcDbLine
  8
Inside
 62
256
370
-1
  6
ByLayer
 10
110.0
 20
40.0
 30
0.0
 11
155.0
 21
40.0
 31
0.0
  0
LINE
  5
69
100
AcDbEntity
100
AcDbLine
  8
Inside
 62
256
370
-1
  6
ByLayer
 10
215.0
 20
40.0
 30
0.0
 11
260.0
 21
40.0
 31
0.0
  0
LINE
  5
6A
100
AcDbEntity
100
AcDbLine
  8
Outside
 62
256
370
-1
  6
ByLayer
 10
343.0
 20
2.0
 30
0.0
 11
339.0
 21
6.0
 31
0.0
  0
LINE
  5
6B
100
AcDbEntity
100
AcDbLine
  8
Outside
 62
256
370
-1
  6
ByLayer
 10
339.0
 20
6.0
 30
0.0
 11
333.0
 21
6.0
 31
0.0
  0
LINE
  5
6C
100
AcDbEntity
100
AcDbLine
  8
Outside
 62
256
370
-1
  6
ByLayer
 10
333.0
 20
6.0
 30
0.0
 11
329.0
 21
2.0
 31
0.0
  0
LINE
  5
6D
100
AcDbEntity
100
AcDbLine
  8
Outside
 62
256
370
-1
  6
ByLayer
 10
27.0
 20
2.0
 30
0.0
 11
31.0
 21
6.0
 31
0.0
  0
LINE
  5
6E
100
AcDbEntity
100
AcDbLine
  8
Outside
 62
256
370
-1
  6
ByLayer
 10
31.0
 20
6.0
 30
0.0
 11
37.0
 21
6.0
 31
0.0
  0
LINE
  5
6F
100
AcDbEntity
100
AcDbLine
  8
Outside
 62
256
370
-1
  6
ByLayer
 10
37.0
 20
6.0
 30
0.0
 11
41.0
 21
2.0
 31
0.0
  0
LINE
  5
70
100
AcDbEntity
100
AcDbLine
  8
Inside
 62
256
370
-1
  6
ByLayer
 10
315.0
 20
325.0
 30
0.0
 11
315.0
 21
55.0
 31
0.0
  0
LINE
  5
71
100
AcDbEntity
100
AcDbLine
  8
Inside
 62
256
370
-1
  6
ByLayer
 10
310.0
 20
50.0
 30
0.0
 11
290.0
 21
50.0
 31
0.0
  0
LINE
  5
72
100
AcDbEntity
100
AcDbLine
  8
Inside
 62
256
370
-1
  6
ByLayer
 10
290.0
 20
50.0
 30
0.0
 11
274.99999999999989
 21
34.999999999999957
 31
0.0
  0
LINE
  5
73
100
AcDbEntity
100
AcDbLine
  8
Outside
 62
256
370
-1
  6
ByLayer
 10
51.838879159369526
 20
51.190893169877405
 30
0.0
 11
51.838879159369526
 21
51.190893169877405
 31
0.0
  0
LINE
  5
74
100
AcDbEntity
100
AcDbLine
  8
Outside
 62
256
370
-1
  6
ByLayer
 10
51.838879159369526
 20
51.190893169877405
 30
0.0
 11
51.838879159369526
 21
51.190893169877405
 31
0.0
  0
LINE
  5
75
100
AcDbEntity
100
AcDbLine
  8
Outside
 62
256
370
-1
  6
ByLayer
 10
51.838879159369526
 20
51.190893169877405
 30
0.0
 11
51.838879159369526
 21
51.190893169877405
 31
0.0
  0
LINE
  5
76
100
AcDbEntity
100
AcDbLine
  8
Outside
 62
256
370
-1
  6
ByLayer
 10
51.838879159369526
 20
51.190893169877405
 30
0.0
 11
51.838879159369526
 21
51.190893169877405
 31
0.0
  0
LINE
  5
77
100
AcDbEntity
100
AcDbLine
  8
cutout
 62
256
370
-1
  6
ByLayer
 10
30.830081388507693
 20
11.090689344380655
 30
0.0
 11
37.378675573868662
 21
11.070339455675386
 31
0.0
  0
LINE
  5
78
100
AcDbEntity
100
AcDbLine
  8
cutout
 62
256
370
-1
  6
ByLayer
 10
37.378675573868662
 20
11.070339455675386
 30
0.0
 11
43.56311654073577
 21
4.4285785776022575
 31
0.0
  0
LINE
  5
79
100
AcDbEntity
100
AcDbLine
  8
cutout
 62
256
370
-1
  6
ByLayer
 10
23.505586646592981
 20
4.0009509185690186
 30
0.0
 11
30.830081388507693
 21
11.090689344380655
 31
0.0
  0
LINE
  5
7A
100
AcDbEntity
100
AcDbLine
  8
cutout
 62
256
370
-1
  6
ByLayer
 10
6.4260825541538305
 20
4.0006391388673572
 30
0.0
 11
23.505586646592981
 21
4.0009509185690186
 31
0.0
  0
LINE
  5
7B
100
AcDbEntity
100
AcDbLine
  8
cutout
 62
256
370
-1
  6
ByLayer
 10
59.836190612399378
 20
46.268682275866958
 30
0.0
 11
78.795913800630572
 21
46.268682275866958
 31
0.0
  0
LINE
  5
7C
100
AcDbEntity
100
AcDbLine
  8
cutout
 62
256
370
-1
  6
ByLayer
 10
78.795913800630572
 20
46.268682275866958
 30
0.0
 11
91.319767649737415
 21
33.831799634045574
 31
0.0
  0
LINE
  5
7D
100
AcDbEntity
100
AcDbLine
  8
cutout
 62
256
370
-1
  6
ByLayer
 10
91.319767649737415
 20
33.831799634045574
 30
0.0
 11
91.302781085814502
 21
4.458973029772336
 31
0.0
  0
LINE
  5
7E
100
AcDbEntity
100
AcDbLine
  8
cutout
 62
256
370
-1
  6
ByLayer
 10
91.302781085814502
 20
4.458973029772336
 30
0.0
 11
52.233684063047363
 21
4.458973029772336
 31
0.0
  0
LINE
  5
7F
100
AcDbEntity
100
AcDbLine
  8
cutout
 62
256
370
-1
  6
ByLayer
 10
52.233684063047363
 20
4.458973029772336
 30
0.0
 11
43.563915368929734
 21
4.428653955751388
 31
0.0
  0
LINE
  5
80
100
AcDbEntity
100
AcDbLine
  8
cutout
 62
256
370
-1
  6
ByLayer
 10
51.22605158743827
 20
54.357001395849657
 30
0.0
 11
59.836190612399378
 21
46.268682275866958
 31
0.0
  0
LINE
  5
81
100
AcDbEntity
100
AcDbLine
  8
cutout
 62
256
370
-1
  6
ByLayer
 10
51.190893169877405
 20
117.93345008756567
 30
0.0
 11
51.22604109113842
 21
54.357004553415123
 31
0.0
  0
LINE
  5
82
100
AcDbEntity
100
AcDbLine
  8
cutout
 62
256
370
-1
  6
ByLayer
 10
3.6675383420215897
 20
117.89468706716673
 30
0.0
 11
51.190893169877405
 21
117.93345008756567
 31
0.0
  0
LINE
  5
83
100
AcDbEntity
100
AcDbLine
  8
cutout
 62
256
370
-1
  6
ByLayer
 10
3.6884173278332049
 20
8.3943290909307429
 30
0.0
 11
3.6675383420215897
 21
117.89468706716673
 31
0.0
  0
LINE
  5
84
100
AcDbEntity
100
AcDbLine
  8
cutout
 62
256
370
-1
  6
ByLayer
 10
6.4260905195927265
 20
4.0006366523442125
 30
0.0
 11
3.6884173278332049
 21
8.3943290909307429
 31
0.0
  0
LINE
  5
85
100
AcDbEntity
100
AcDbLine
  8
cutout
 62
256
370
-1
  6
ByLayer
 10
366.6045534150615
 20
117.77793345008763
 30
0.0
 11
366.47492469912521
 21
5.7618424826620105
 31
0.0
  0
LINE
  5
86
100
AcDbEntity
100
AcDbLine
  8
cutout
 62
256
370
-1
  6
ByLayer
 10
366.47492469912521
 20
5.7618424826620105
 30
0.0
 11
364.40935852609545
 21
2.9352782458844202
 31
0.0
  0
LINE
  5
87
100
AcDbEntity
100
AcDbLine
  8
cutout
 62
256
370
-1
  6
ByLayer
 10
364.40935852609545
 20
2.9352782458844202
 30
0.0
 11
345.60183495061381
 21
2.9352782458844202
 31
0.0
  0
LINE
  5
88
100
AcDbEntity
100
AcDbLine
  8
cutout
 62
256
370
-1
  6
ByLayer
 10
345.60183495061381
 20
2.9352782458844202
 30
0.0
 11
339.29642242241761
 21
8.5884067194396003
 31
0.0
  0
LINE
  5
89
100
AcDbEntity
100
AcDbLine
  8
cutout
 62
256
370
-1
  6
ByLayer
 10
339.29642242241761
 20
8.5884067194396003
 30
0.0
 11
332.44743984868734
 21
8.5884067194396003
 31
0.0
  0
LINE
  5
8A
100
AcDbEntity
100
AcDbLine
  8
cutout
 62
256
370
-1
  6
ByLayer
 10
332.44743984868734
 20
8.5884067194396003
 30
0.0
 11
328.31630750262775
 21
3.8049903187390637
 31
0.0
  0
LINE
  5
8B
100
AcDbEntity
100
AcDbLine
  8
cutout
 62
256
370
-1
  6
ByLayer
 10
328.31630750262775
 20
3.8049903187390637
 30
0.0
 11
279.06886137723359
 21
3.8049903187390637
 31
0.0
  0
LINE
  5
8C
100
AcDbEntity
100
AcDbLine
  8
cutout
 62
256
370
-1
  6
ByLayer
 10
279.06886137723359
 20
3.8049903187390637
 30
0.0
 11
279.06886137723359
 21
35.549480977933534
 31
0.0
  0
LINE
  5
8D
100
AcDbEntity
100
AcDbLine
  8
cutout
 62
256
370
-1
  6
ByLayer
 10
279.06886137723359
 20
35.549480977933534
 30
0.0
 11
291.02740237898496
 21
48.05159202521903
 31
0.0
  0
LINE
  5
8E
100
AcDbEntity
100
AcDbLine
  8
cutout
 62
256
370
-1
  6
ByLayer
 10
291.02740237898496
 20
48.05159202521903
 30
0.0
 11
312.00920613660321
 21
48.05159202521903
 31
0.0
  0
LINE
  5
8F
100
AcDbEntity
100
AcDbLine
  8
cutout
 62
256
370
-1
  6
ByLayer
 10
312.00920613660321
 20
48.05159202521903
 30
0.0
 11
317.98847663747887
 21
54.900574598949348
 31
0.0
  0
LINE
  5
90
100
AcDbEntity
100
AcDbLine
  8
cutout
 62
256
370
-1
  6
ByLayer
 10
317.98847663747887
 20
54.900574598949348
 30
0.0
 11
317.88053385280114
 21
117.7772690470604
 31
0.0
  0
LINE
  5
91
100
AcDbEntity
100
AcDbLine
  8
cutout
 62
256
370
-1
  6
ByLayer
 10
317.88125582798614
 20
117.77668620747829
 30
0.0
 11
366.6045534150615
 21
117.77793345008763
 31
0.0
  0
ENDSEC
  0
SECTION
  2
OBJECTS
  0
DICTIONARY
  5
C
100
AcDbDictionary
280
0
281
1
  3
ACAD_GROUP
350
D
  3
ACAD_LAYOUT
350
1A
  3
ACAD_MLINESTYLE
350
17
  3
ACAD_PLOTSETTINGS
350
19
  3
ACAD_PLOTSTYLENAME
350
E
  3
AcDbVariableDictionary
350
92
  0
DICTIONARY
  5
D
100
AcDbDictionary
280
0
281
1
  0
ACDBDICTIONARYWDFLT
  5
E
100
AcDbDictionary
281
1
  3
Normal
350
F
100
AcDbDictionaryWithDefault
340
F
  0
ACDBPLACEHOLDER
  5
F
  0
DICTIONARY
  5
17
100
AcDbDictionary
280
0
281
1
  3
Standard
350
18
  0
MLINESTYLE
  5
18
100
AcDbMlineStyle
  2
STANDARD
 70
0
  3

 62
256
 51
90.0
 52
90.0
 71
2
 49
0.5
 62
256
  6
BYLAYER
 49
-0.5
 62
256
  6
BYLAYER
  0
DICTIONARY
  5
19
100
AcDbDictionary
280
0
281
1
  0
DICTIONARY
  5
1A
100
AcDbDictionary
281
1
  3
Layout1
350
1E
  3
Layout2
350
26
  3
Model
350
22
  0
LAYOUT
  5
1E
100
AcDbPlotSettings
  1

  2
C:\Program Files\AutoCAD 2002\plotters\DWF ePlot (optimized for plotting).pc3
  4

  6

 40
0.0
 41
0.0
 42
0.0
 43
0.0
 44
0.0
 45
0.0
 46
0.0
 47
0.0
 48
0.0
 49
0.0
140
0.0
141
0.0
142
1.0
143
1.0
 70
688
 72
0
 73
0
 74
5
  7

 75
16
147
1.0
148
0.0
149
0.0
100
AcDbLayout
  1
Layout1
 70
1
 71
1
 10
0.0
 20
0.0
 11
420.0
 21
297.0
 12
0.0
 22
0.0
 32
0.0
 14
100000000000000000000.0
 24
100000000000000000000.0
 34
100000000000000000000.0
 15
-100000000000000000000.0
 25
-100000000000000000000.0
 35
-100000000000000000000.0
146
0.0
 13
0.0
 23
0.0
 33
0.0
 16
1.0
 26
0.0
 36
0.0
 17
0.0
 27
1.0
 37
0.0
 76
0
330
1B
  0
LAYOUT
  5
22
100
AcDbPlotSettings
  1

  2
C:\Program Files\AutoCAD 2002\plotters\DWF ePlot (optimized for plotting).pc3
  4

  6

 40
0.0
 41
0.0
 42
0.0
 43
0.0
 44
0.0
 45
0.0
 46
0.0
 47
0.0
 48
0.0
 49
0.0
140
0.0
141
0.0
142
1.0
143
1.0
 70
1712
 72
0
 73
0
 74
0
  7

 75
0
147
1.0
148
0.0
149
0.0
100
AcDbLayout
  1
Model
 70
1
 71
0
 10
0.0
 20
0.0
 11
12.0
 21
9.0
 12
0.0
 22
0.0
 32
0.0
 14
0.0
 24
0.0
 34
0.0
 15
0.0
 25
0.0
 35
0.0
146
0.0
 13
0.0
 23
0.0
 33
0.0
 16
1.0
 26
0.0
 36
0.0
 17
0.0
 27
1.0
 37
0.0
 76
0
330
1F
  0
LAYOUT
  5
26
100
AcDbPlotSettings
  1

  2
C:\Program Files\AutoCAD 2002\plotters\DWF ePlot (optimized for plotting).pc3
  4

  6

 40
0.0
 41
0.0
 42
0.0
 43
0.0
 44
0.0
 45
0.0
 46
0.0
 47
0.0
 48
0.0
 49
0.0
140
0.0
141
0.0
142
1.0
143
1.0
 70
688
 72
0
 73
0
 74
5
  7

 75
16
147
1.0
148
0.0
149
0.0
100
AcDbLayout
  1
Layout2
 70
1
 71
2
 10
0.0
 20
0.0
 11
12.0
 21
9.0
 12
0.0
 22
0.0
 32
0.0
 14
0.0
 24
0.0
 34
0.0
 15
0.0
 25
0.0
 35
0.0
146
0.0
 13
0.0
 23
0.0
 33
0.0
 16
1.0
 26
0.0
 36
0.0
 17
0.0
 27
1.0
 37
0.0
 76
0
330
23
  0
DICTIONARY
  5
92
100
AcDbDictionary
281
1
  3
DIMASSOC
350
94
  3
HIDETEXT
350
93
  0
DICTIONARYVAR
  5
93
100
DictionaryVariables
280
0
  1
2
  0
DICTIONARYVAR
  5
94
100
DictionaryVariables
280
0
  1
1
  0
ENDSEC
  0
EOF
